# xmcd
#
# Track frame offsets: 
#        150
#        17739
#        29211
#        41970
#        60178
#        78149
#        103239
#        117989
#        137149
#        159040
#        176172
#        194401
#
# Disc length: 2745 seconds
#
# Revision: 0
# Processed by: cddbd v1.5.2PL0 Copyright (c) Steve Scherf et al.
# Submitted via: ExactAudioCopy v1.3
#
DISCID=a00ab70c
DTITLE=Matthew Hall - They Call Me The Kid Vol.1
DYEAR=2017
DGENRE=Blues
TTITLE0=Waltzing Matilda Boogie
TTITLE1=In The Mood
TTITLE2=I Never Was A Rich Kid
TTITLE3=Where's The Jazz I Like
TTITLE4=The Entertainer Blues
TTITLE5=Boogie Woogie Man
TTITLE6=That's The Glory Of Love
TTITLE7=Bumble Boogie
TTITLE8=I Don't Know How Blues
TTITLE9=Tell Me Why We Ain't
TTITLE10=Swanee River Boogie
TTITLE11=Rockin' The Kid's Stuff
EXTD=
EXTT0=
EXTT1=
EXTT2=
EXTT3=
EXTT4=
EXTT5=
EXTT6=
EXTT7=
EXTT8=
EXTT9=
EXTT10=
EXTT11=
PLAYORDER=
